<?xml version="1.0" encoding="UTF-8" standalone="no"?>
<svg
   width="1024"
   height="1024"
   viewBox="0 0 1024 1024"
   version="1.1"
   id="svg34"
   sodipodi:docname="HoneyKey Logo No Orbitssvg.svg"
   inkscape:version="1.4.2 (f4327f4, 2025-05-13)"
   xmlns:inkscape="http://www.inkscape.org/namespaces/inkscape"
   xmlns:sodipodi="http://sodipodi.sourceforge.net/DTD/sodipodi-0.dtd"
   xmlns="http://www.w3.org/2000/svg"
   xmlns:svg="http://www.w3.org/2000/svg">
  <defs
     id="defs34">
    <rect
       x="240.0564"
       y="693.09518"
       width="535.46417"
       height="154.6228"
       id="rect34" />
  </defs>
  <sodipodi:namedview
     id="namedview34"
     pagecolor="#ffffff"
     bordercolor="#000000"
     borderopacity="0.25"
     inkscape:showpageshadow="2"
     inkscape:pageopacity="0.0"
     inkscape:pagecheckerboard="0"
     inkscape:deskcolor="#d1d1d1"
     showguides="true"
     inkscape:zoom="0.46887256"
     inkscape:cx="245.2692"
     inkscape:cy="602.50913"
     inkscape:window-width="1920"
     inkscape:window-height="1111"
     inkscape:window-x="-9"
     inkscape:window-y="-9"
     inkscape:window-maximized="1"
     inkscape:current-layer="g35">
    <sodipodi:guide
       position="512.07521,519.21974"
       orientation="1,0"
       id="guide36"
       inkscape:locked="false" />
    <sodipodi:guide
       position="265.42563,551.2106"
       orientation="0,-1"
       id="guide41"
       inkscape:locked="false" />
    <sodipodi:guide
       position="811.35788,420.00589"
       orientation="1,0"
       id="guide42"
       inkscape:locked="false" />
    <sodipodi:guide
       position="489.00147,961.41384"
       orientation="0,-1"
       id="guide43"
       inkscape:locked="false" />
  </sodipodi:namedview>
  <g
     id="g36"
     style="display:none">
    <path
       fill="#295159"
       d="m 345.783,709.578 c 16.001,-2.865 31.283,7.82 34.086,23.831 2.803,16.012 -7.94,31.253 -23.962,33.994 -15.936,2.727 -31.076,-7.946 -33.864,-23.87 -2.788,-15.925 7.826,-31.106 23.74,-33.955 z"
       id="path13" />
    <path
       fill="#faf8ea"
       d="m 349.83,723.162 c 18.648,0.261 21.39,25.213 3.281,30.429 -21.436,0.231 -21.299,-27.813 -3.281,-30.429 z"
       id="path14" />
    <path
       fill="#295159"
       d="m 241.962,695.975 16.065,-0.054 0.038,28.066 33.855,-0.064 0.039,-27.938 16.063,-0.045 0.049,45.401 c 0.007,7.373 0.296,17.479 -0.136,24.711 l -15.959,0.047 -0.052,-29.045 -33.907,0.025 0.061,28.97 -16.089,0.037 z"
       id="path15" />
    <path
       fill="#295159"
       d="m 639.432,696.019 c 5.283,-0.205 11.728,-0.043 17.098,-0.041 -9.423,9.49 -18.256,19.433 -27.969,29.142 3.844,7.395 11.092,17.194 16.533,23.658 4.401,5.58 8.617,11.303 12.641,17.16 -5.931,0.128 -11.864,0.153 -17.796,0.076 -7.713,-8.705 -14.753,-19.917 -23.102,-29.043 -2.334,3.343 -6.797,7.692 -9.737,10.742 0.05,6.059 0,12.119 -0.15,18.177 -4.728,0.312 -11.139,0.143 -15.992,0.159 -0.161,-6.806 -1.06,-13.995 -0.923,-20.932 0.131,-6.617 0.685,-13.541 0.708,-20.113 0.018,-5.496 -1.699,-24.722 -0.204,-28.832 3.552,-0.271 12.236,-0.645 15.358,0.186 3.479,3.5 -1.707,28.968 2.869,30.63 2.063,-0.986 16.342,-16.413 18.624,-19.099 3.75,-4.415 7.635,-7.933 12.042,-11.87 z"
       id="path16" />
    <path
       fill="#295159"
       d="m 485.617,710.171 c 13.34,-1.813 26.254,6.593 30.152,19.41 1.487,4.89 1.408,8.346 1.134,13.34 -9.184,0.497 -19.707,-0.15 -28.997,0.133 -3.573,0.109 -8.269,-0.38 -11.658,0.19 -2.283,3.492 3.66,8.79 6.189,9.854 6.647,2.796 15.478,0.071 21.764,-2.614 1.297,-0.554 2.203,0.494 3.171,1.211 1.726,1.639 3.98,4.424 5.591,6.295 -4.623,4.358 -10.398,7.3 -16.641,8.478 -8.792,1.619 -17.866,-0.347 -25.198,-5.462 -5.763,-4.045 -10.134,-11.533 -11.096,-18.476 -2.411,-17.395 8.962,-30.003 25.589,-32.359 z"
       id="path24" />
    <path
       fill="#faf8ea"
       d="m 485.158,722.578 c 8.982,-0.573 14.816,1.312 16.671,11.047 l -9.079,0.006 -17.938,0.011 c 0.325,-0.9 0.677,-1.79 1.054,-2.668 2.222,-5.104 4.345,-6.523 9.292,-8.396 z"
       id="path25" />
    <path
       fill="#295159"
       d="m 685.399,710.141 c 14.865,-1.764 28.378,7.406 31.272,22.453 0.642,3.339 0.429,7.04 0.388,10.448 -7.888,-0.026 -15.777,-0.009 -23.665,0.05 -3.886,-0.004 -14.719,-1.21 -17.173,1.447 -1.285,9.849 17.755,11.159 23.9,8.309 1.555,-0.721 3.01,-2.933 4.816,-3.586 l 1.883,1.805 c 2.03,2.206 4.275,4.337 6.419,6.442 -21.107,20.787 -59.546,4.68 -52.426,-26.282 2.858,-12.427 12.775,-18.669 24.586,-21.086 z"
       id="path26" />
    <path
       fill="#faf8ea"
       d="m 686.333,722.544 c 9.548,-0.667 13.438,2.14 16.054,11.086 l -10.137,-0.034 -16.499,10e-4 c 2.123,-6.564 3.794,-8.966 10.582,-11.053 z"
       id="path27" />
    <path
       fill="#295159"
       d="m 519.602,711.045 15.912,-0.107 c 3.301,9.523 11.323,29.464 15.798,38.123 5.303,-10.135 10.368,-26.678 15.354,-38.062 l 14.954,-0.026 c -5.683,15.452 -12.629,30.599 -18.606,45.936 -4.645,10.709 -8.31,25.042 -20.839,28.889 -8.73,2.681 -14.777,0.118 -22.356,-3.808 2.291,-3.138 4.189,-9.144 6.553,-10.5 5.466,5.999 19.652,1.36 16.342,-6.069 -7.955,-17.853 -15.059,-36.635 -23.112,-54.376 z"
       id="path28" />
    <path
       fill="#295159"
       d="m 719.996,710.975 15.439,-0.038 c 4.855,8.121 10.879,30.594 16.016,37.104 3.046,-4.5 12.538,-30.433 14.95,-37.058 l 15.015,0.013 c -6.45,15.138 -12.697,31.079 -19.065,46.382 -4.379,11.342 -8.898,26.402 -22.391,29.169 -7.393,1.516 -13.771,-1.047 -19.833,-4.935 2.664,-4.048 3.83,-6.695 5.884,-11.068 l 3.719,3.405 8.365,0.048 c 5.338,-4.199 6.215,-4.984 3.704,-11.666 -3.201,-8.012 -6.712,-15.966 -10.34,-23.798 -4.17,-8.999 -7.47,-18.542 -11.463,-27.558 z"
       id="path29" />
    <path
       fill="#295159"
       d="m 424.294,710.152 c 5.664,-0.944 12.728,1.117 16.88,5.079 2.901,2.772 4.995,6.281 6.058,10.15 2.101,7.836 0.833,31.635 0.851,40.665 l -15.104,0.035 c -0.145,-11.073 1.72,-30.869 -3.042,-39.626 l -3.536,-2.379 c -4.119,-0.113 -9.266,-0.654 -12.907,1.16 -5.823,6.333 -5.583,10.484 -5.554,18.682 0.026,7.355 0.082,14.758 0.13,22.118 l -15.037,0.067 c -0.082,-4.633 -0.991,-9.64 -0.919,-14.244 0.214,-13.66 -0.097,-27.244 0.821,-40.864 l 13.92,-0.112 c 0.152,1.93 0.063,2.728 1.018,4.431 3.2,1.328 6.732,-2.764 10.336,-3.85 2.382,-0.717 3.655,-0.922 6.085,-1.312 z"
       id="path30" />
  </g>
  <ellipse
     style="fill:#fbead2;fill-opacity:1;stroke:#000000;stroke-width:1.08111;stroke-miterlimit:2;stroke-dasharray:none;stroke-opacity:0"
     id="path41"
     ry="511.4346"
     rx="511.44235"
     cy="511.98434"
     cx="512.01031" />
  <g
     id="g35"
     transform="matrix(1.3093347,0,0,1.3093347,-155.09652,-35.110099)">
    <path
       id="path1"
       style="fill:#e09b3d;fill-opacity:1;stroke-width:2.39572"
       inkscape:label="path1"
       d="m 566.68294,438.67949 c -34.2875,0.0624 -74.78195,-0.93423 -108.71966,0.29474 -8.87133,0.048 -20.02825,-0.18293 -28.64565,0.63639 -24.46265,6.03481 -27.35715,22.40979 -27.63027,44.70912 0.0407,22.27058 -0.35234,43.90721 -0.0936,66.24248 0.23718,20.49775 -1.87265,48.61701 13.14371,64.85278 3.0689,3.31806 13.37892,4.95973 17.9164,5.16576 20.5792,0.92954 41.4206,0.52201 62.04532,0.51004 35.20505,0.14851 70.41005,0.0257 105.61269,-0.37435 7.20872,-4.84892 16.26725,-11.33054 19.05341,-20.01262 4.63092,-14.42941 5.40008,-132.42578 -0.90305,-144.13604 -4.85851,-9.02707 -12.81461,-14.77639 -22.5628,-17.58418 z m -59.74318,38.5888 c 22.77608,-1.07089 32.6254,9.94423 37.61087,30.76062 -3.10242,14.52521 -6.13747,17.71991 -16.48457,27.70046 4.6884,16.34836 7.49263,34.19377 12.52604,51.62021 l -20.71921,-0.004 -35.8562,0.10292 c 4.08468,-16.83231 7.67872,-34.66722 11.36094,-51.65764 -22.17235,-21.62853 -19.46239,-48.6851 11.56213,-58.52191 z" />
    <path
       fill="#295159"
       d="m 429.31763,439.6101 c 0.7259,-4.46321 0.45759,-17.57498 0.3857,-22.56764 -0.7163,-29.05047 3.33725,-50.50409 24.39559,-71.8619 32.52424,-32.98423 84.87302,-32.64164 117.27269,0.82651 26.2331,27.10034 24.81244,57.65771 24.52736,92.97774 l -29.21578,-0.30424 c 0.40967,-27.06203 4.58781,-54.07611 -15.62006,-74.55708 -10.58188,-10.75918 -25.17897,-16.60233 -40.26002,-16.1136 -15.14092,0.43124 -29.44334,7.0458 -39.57723,18.30327 -17.23717,19.51789 -13.45193,47.51904 -13.26028,72.66208 -8.87133,0.0479 -20.03057,-0.18448 -28.64797,0.63486 z"
       id="path3"
       style="stroke-width:2.39572" />
    <path
       fill="#e09b3d"
       d="m 331.00821,215.69709 c 17.88443,-1.23562 50.3433,-0.1577 69.5344,-0.16117 l 141.89878,-0.019 h 99.13382 c 74.13376,0.006 62.26972,-6.80544 102.8459,55.187 -11.90736,3.35679 -59.12954,6.83144 -74.02111,8.08092 -7.60608,1.18536 -16.5171,1.15244 -24.24277,1.84043 -24.09545,2.14717 -47.97776,2.71559 -72.15121,2.63414 -7.72739,-0.026 -15.32481,2.51284 -23.19951,0.97394 -11.44985,-2.23556 -19.00914,-12.21236 -30.62362,-14.15851 -22.20824,-3.93214 -29.19045,3.5093 -46.71095,14.62815 -5.55249,0.28941 -10.87624,-0.305 -16.41832,-0.64293 -49.59985,-3.02408 -98.96748,-3.11939 -148.36629,-9.62676 -8.94915,-1.18016 -20.79238,-0.87515 -29.09167,-3.87495 4.94249,-7.10872 10.2229,-14.43059 14.48085,-21.93963 9.29055,-16.38713 17.18605,-28.65841 36.9317,-32.92156 z"
       id="path5"
       style="stroke-width:1.73298" />
    <path
       fill="#295159"
       d="m 337.5953,135.87568 c 16.2069,-0.80757 36.73241,-0.18543 53.36563,-0.18371 l 100.05058,-0.002 123.5291,-0.0295 c 20.79759,0.002 41.72514,-0.0623 62.51753,0.10226 4.68254,0.36047 12.15518,0.37607 16.28661,2.41406 15.28496,7.53849 25.90817,25.68635 16.65402,41.89672 -5.64954,9.89882 -13.26429,13.89509 -23.71247,16.90529 -8.94568,1.8543 -31.49878,1.22002 -41.49466,1.22002 l -73.32791,-0.0329 -146.5709,0.0174 c -24.74187,0.003 -49.68476,0.12477 -74.42143,-0.12478 -6.85743,-0.53375 -13.26602,-0.62041 -19.65728,-3.38972 -19.08712,-8.27328 -26.31542,-30.35674 -12.86223,-47.04021 5.31507,-6.59229 11.59022,-9.3824 19.64341,-11.75313 z"
       id="path6"
       style="stroke-width:1.73298" />
    <path
       fill="#e09b3d"
       d="m 543.30961,673.04468 c 44.49619,0.14904 88.97679,-1.58221 133.32741,-5.19029 10.46379,-0.81625 30.90611,-1.64981 39.92111,-4.11239 -3.80911,8.91103 -10.18303,18.03002 -15.52237,26.25651 -7.23696,10.33206 -22.12159,32.51605 -33.83312,34.93876 -21.48732,4.44685 -53.13341,2.7 -75.203,2.70172 l -112.12431,0.009 -74.15628,-0.0259 c -47.92924,-0.0346 -59.57319,3.22163 -85.98912,-42.6107 -5.0118,-8.69613 -7.48651,-10.12585 -11.02007,-21.07486 5.91295,1.54756 11.25749,1.90801 17.28308,2.40885 36.86239,3.07086 73.69878,4.6912 110.61489,6.69106 16.1913,0.8769 39.32842,-3.69992 53.47133,5.32028 11.12058,7.09312 19.27429,7.60954 32.37395,6.13651 4.82464,-0.64641 16.18436,-8.46911 20.8565,-11.44812 z"
       id="path7"
       style="stroke-width:1.73298" />
    <path
       fill="#e09b3d"
       d="m 777.69101,538.0952 c 3.20255,-0.27035 7.77071,-0.16983 11.09112,-0.2045 -5.3428,28.99809 -11.54517,31.63223 -23.24803,54.86813 -25.60143,50.82853 -21.04541,52.2981 -78.69324,57.1366 -32.15559,2.54922 -64.3597,4.48324 -96.58981,5.79858 l -15.14631,0.19237 c 10.6908,-11.49491 21.24469,-11.63528 32.64255,-18.94676 29.02235,-18.61402 61.09302,-30.54217 88.69432,-51.47494 9.66141,-7.3288 9.03926,-25.70367 9.89189,-36.99582 10.06346,-1.51637 19.88777,-1.4557 29.07954,-2.86982 13.77898,-2.11946 28.53711,-4.92515 42.27797,-7.50384 z"
       id="path8"
       style="stroke-width:1.73298" />
    <path
       fill="#e09b3d"
       d="m 247.47252,538.41696 c -3.20255,-0.27036 -7.77071,-0.16983 -11.09112,-0.2045 5.3428,28.99809 11.54517,31.63223 23.24803,54.86813 25.60143,50.82853 21.04541,52.2981 78.69324,57.1366 32.15559,2.54922 64.3597,4.48324 96.58981,5.79858 l 15.14631,0.19237 c -10.6908,-11.49491 -21.24469,-11.63529 -32.64255,-18.94676 -29.02235,-18.61402 -61.09302,-30.54218 -88.69432,-51.47494 -9.66141,-7.3288 -9.03926,-25.70367 -9.89189,-36.99582 -10.06346,-1.51637 -19.88777,-1.45571 -29.07954,-2.86983 -13.77898,-2.11945 -28.53711,-4.92515 -42.27797,-7.50383 z"
       id="path8-4"
       style="stroke-width:1.73298" />
    <path
       fill="#e09b3d"
       d="m 272.70357,287.39946 c 4.72239,-0.49044 41.15153,5.11404 49.57558,5.8211 17.49625,2.48164 36.2905,1.20097 53.68277,3.17484 23.12499,2.62201 43.42867,4.03439 66.81361,4.08465 -18.62442,12.28168 -40.63337,23.41266 -60.30798,33.9215 -15.01634,9.12072 -41.59343,28.11599 -56.83333,24.32422 -10.45338,-2.60122 -81.64278,-7.25083 -86.48821,-11.61102 -3.5613,-10.69254 9.96987,-37.97496 16.39059,-47.3487 4.88702,-7.13817 9.43092,-9.69606 17.16697,-12.36659 z"
       id="path11"
       style="stroke-width:1.73298" />
    <path
       fill="#e09b3d"
       d="m 751.95616,285.67345 c -4.72239,-0.49044 -41.15153,5.11404 -49.57558,5.8211 -17.49625,2.48164 -36.2905,1.20097 -53.68277,3.17484 -23.12499,2.62201 -43.42867,4.03439 -66.81361,4.08465 18.62442,12.28168 40.63337,23.41266 60.30798,33.9215 15.01634,9.12072 41.59343,28.11599 56.83333,24.32422 10.45338,-2.60122 81.64278,-7.25083 86.48821,-11.61102 3.5613,-10.69254 -9.96987,-37.97496 -16.39059,-47.3487 -4.88702,-7.13817 -9.43092,-9.69606 -17.16697,-12.36659 z"
       id="path11-5"
       style="stroke-width:1.73298" />
    <path
       fill="#e09b3d"
       d="m 741.43171,288.61428 c 23.20643,-2.74678 31.33761,13.77553 39.35788,31.85231 -16.70947,10.33554 -36.2957,27.31709 -55.23379,33.72567 -5.14351,1.73993 -34.44833,6.13825 -38.17079,4.63576 -11.04606,-4.45725 -31.45026,-15.66448 -42.21731,-21.47173 -12.02694,-7.22309 -24.24796,-14.11691 -36.65096,-20.67281 -12.2245,-6.49004 -17.75273,-6.85223 -28.59603,-16.3178 10.07905,0.0468 20.5931,0.19235 30.64616,-0.17505 10.01666,-0.36739 20.85304,-2.13157 30.83331,-2.58214 33.80019,-1.5285 66.48781,-4.96154 100.03153,-8.99421 z"
       id="path12"
       style="stroke-width:1.73298" />
    <path
       fill="#295159"
       d="m 231.16213,362.78616 c 2.15063,-0.0208 26.42113,3.73112 30.32035,4.30993 19.12526,2.83518 40.57271,4.355 59.32018,7.86084 0.33619,1.97214 -2.77452,11.44639 -2.78492,16.732 -0.0398,17.64874 -0.0225,35.33042 0.0243,52.97397 l -7.50383,-0.72786 c -26.42633,-3.75192 -54.0051,-5.57675 -79.72437,-12.14478 -16.59336,-5.20763 -13.78418,-19.406 -13.30588,-33.29763 0.57361,-16.65401 -5.50744,-28.96862 13.65421,-35.70647 z"
       id="path18"
       style="stroke-width:1.73298" />
    <path
       fill="#295159"
       d="m 793.08099,362.13469 c -2.15063,-0.0208 -26.42113,3.73112 -30.32035,4.30994 -19.12526,2.83517 -40.57271,4.35499 -59.32018,7.86083 -0.33619,1.97215 2.77452,11.44639 2.78492,16.732 0.0398,17.64875 0.0225,35.33043 -0.0243,52.97397 l 7.50383,-0.72785 c 26.42633,-3.75193 54.0051,-5.57676 79.72437,-12.14478 16.59336,-5.20763 13.78418,-19.406 13.30588,-33.29763 -0.57361,-16.65402 5.50744,-28.96863 -13.65421,-35.70648 z"
       id="path18-4"
       style="stroke-width:1.73298" />
    <path
       fill="#e09b3d"
       d="m 246.92539,388.29574 c 6.70145,-1.86817 13.64207,2.08651 15.45131,8.80704 1.80751,6.71879 -2.21129,13.62302 -8.94742,15.36987 -6.64947,1.72259 -13.44624,-2.23209 -15.22949,-8.86597 -1.78497,-6.63388 2.10905,-13.46532 8.7256,-15.31094 z"
       id="path19"
       style="stroke-width:1.73298" />
    <path
       fill="#295159"
       d="m 228.53665,449.48927 c 8.85037,-0.58922 37.86231,5.09672 47.75941,6.76731 13.83964,2.24596 27.7434,4.07599 41.69395,5.48317 l 0.0676,69.44429 c -3.05699,-0.17157 -6.11398,-0.37779 -9.16577,-0.62041 -24.83718,-3.18003 -50.43341,-6.07066 -75.00544,-10.72719 -18.42339,-3.49024 -16.90356,-20.58443 -16.50151,-34.94917 0.30153,-10.77918 -1.28414,-17.86191 2.41925,-28.56656 3.57169,-3.58209 4.40352,-4.19557 8.73252,-6.83144 z"
       id="path20"
       style="stroke-width:1.73298" />
    <path
       fill="#e09b3d"
       d="m 247.36903,474.88446 c 6.74652,-1.53542 13.47917,2.62202 15.12725,9.34254 1.64807,6.72053 -2.39672,13.52078 -9.08953,15.27976 -4.42951,1.16457 -9.1415,-0.14904 -12.32847,-3.43825 -3.18697,-3.28922 -4.35153,-8.04106 -3.04832,-12.43072 1.3032,-4.38966 4.87316,-7.73605 9.33907,-8.75333 z"
       id="path21"
       style="stroke-width:1.73298" />
    <path
       fill="#295159"
       d="m 789.86524,449.75615 c 7.63381,-1.13164 13.16725,6.57669 16.70947,12.21756 0.64987,13.91242 0.19063,31.32028 0.21143,45.4996 -2.89409,3.51795 -6.81931,8.06879 -11.15352,9.51583 -21.84258,7.28721 -48.77147,9.61289 -71.5048,12.66814 -2.8213,-0.3466 -13.81538,1.2876 -18.00747,1.57529 l 0.0312,-69.15315 c 27.93057,-3.93214 55.83513,-8.04106 83.71371,-12.32327 z"
       id="path22"
       style="stroke-width:1.73298" />
    <path
       fill="#e09b3d"
       d="m 770.41592,475.02311 c 6.71533,-1.67233 13.52251,2.38112 15.25203,9.08085 1.72952,6.70147 -2.26675,13.54331 -8.95262,15.32828 -6.76558,1.80577 -13.7062,-2.24769 -15.45651,-9.02714 -1.75033,-6.78117 2.36206,-13.68713 9.1571,-15.38199 z"
       id="path23"
       style="stroke-width:1.73298" />
    <path
       fill="#e09b3d"
       d="m 773.39114,412.36087 c -6.91934,-0.12271 -12.44548,-5.79984 -12.38205,-12.71894 0.0639,-6.92076 5.69479,-12.49516 12.61484,-12.48886 7.00242,0.007 12.65744,5.71854 12.59344,12.72004 -0.0644,7.00309 -5.82407,12.60937 -12.82621,12.4878 z"
       id="path23-8"
       style="stroke-width:1.73298" />
    <path
       fill="#e09b3d"
       d="m 345.80793,598.63192 c 17.68514,9.45172 34.7308,19.50651 53.06409,27.81792 5.02046,2.58735 9.64581,7.62168 14.6472,9.98721 13.13952,6.2145 24.83198,10.82251 36.73588,19.28295 -16.74066,0.17504 -54.40542,-1.08485 -70.75269,-3.14883 -17.58636,-0.62215 -34.90237,-2.22516 -52.3085,-3.81778 -29.94776,-2.73985 -40.12733,-0.32406 -54.6879,-29.68607 27.30669,-6.03947 46.85479,-13.26603 73.30192,-20.4354 z"
       id="path31"
       style="stroke-width:1.73298" />
    <path
       fill="#295159"
       d="m 508.58954,68.490178 c 75.27268,-8.131948 60.64694,8.153006 73.07702,48.242912 l -64.81024,0.0451 -74.58062,-0.01 c 12.44516,-40.253919 -4.12903,-56.472288 66.31384,-48.278012 z"
       id="path32"
       style="stroke-width:1.87019"
       sodipodi:nodetypes="ccccc" />
    <path
       fill="#e09b3d"
       d="m 235.78574,537.31535 c 6.47097,1.71913 18.56896,2.96688 25.52691,3.95988 11.72886,1.68446 23.42133,3.61847 35.067,5.8003 l -9.21256,4.00321 c -14.84997,4.8177 -29.0726,7.33574 -43.86712,11.83631 -1.99813,-8.41712 -5.3324,-16.68867 -7.51423,-25.5997 z"
       id="path34"
       style="stroke-width:1.73298" />
  </g>
  <path
     style="font-weight:bold;font-size:96px;font-family:'Noto Sans SC';-inkscape-font-specification:'Noto Sans SC Bold';text-align:center;text-anchor:middle;white-space:pre;display:none;fill:#023d50;stroke:#000000;stroke-width:1.6911;stroke-miterlimit:2;stroke-opacity:0"
     d="M 142.8163,856.78457 V 744.67048 h 22.39255 v 44.33121 h 42.3643 v -44.33121 h 22.24126 v 112.11409 h -22.24126 v -48.41634 h -42.3643 v 48.41634 z m 148.12372,2.11822 q -10.59107,0 -19.97174,-5.29554 -9.22936,-5.29554 -14.9788,-15.13011 -5.74944,-9.98587 -5.74944,-24.05687 0,-14.071 5.74944,-23.90557 5.74944,-9.98587 14.9788,-15.2814 9.38067,-5.29554 19.97174,-5.29554 8.01896,0 15.28141,3.02602 7.26245,3.02602 13.01189,8.77546 5.74944,5.59814 9.07807,13.9197 3.32862,8.17026 3.32862,18.76133 0,14.071 -5.74944,24.05687 -5.74944,9.83457 -15.13011,15.13011 -9.22936,5.29554 -19.82044,5.29554 z m 0,-18.15613 q 5.74944,0 9.68327,-3.17732 4.08513,-3.32863 6.05205,-9.22937 2.11821,-5.90074 2.11821,-13.9197 0,-8.01895 -2.11821,-13.9197 -1.96692,-5.90074 -6.05205,-9.07806 -3.93383,-3.32862 -9.68327,-3.32862 -5.74944,0 -9.83456,3.32862 -3.93383,3.17732 -6.05205,9.07806 -1.96691,5.90075 -1.96691,13.9197 0,8.01896 1.96691,13.9197 2.11822,5.90074 6.05205,9.22937 4.08512,3.17732 9.83456,3.17732 z m 59.30994,16.03791 v -84.7286 h 18.15613 l 1.66431,11.19628 h 0.45391 q 5.59814,-5.44683 12.25538,-9.38066 6.65725,-3.93383 15.28141,-3.93383 13.7684,0 19.97174,9.07806 6.20334,8.92677 6.20334,24.96468 v 52.80407 h -22.24125 v -50.08065 q 0,-9.83457 -2.87472,-13.7684 -2.72342,-3.93383 -9.07807,-3.93383 -5.14423,0 -9.07806,2.42082 -3.78253,2.42082 -8.47286,7.11115 v 58.25091 z m 133.90156,2.11822 q -11.80149,0 -21.33345,-5.29554 -9.53197,-5.29554 -15.28141,-15.28141 -5.59814,-9.98587 -5.59814,-23.90557 0,-10.28847 3.17732,-18.45873 3.32863,-8.17025 8.92676,-13.9197 5.74945,-5.90074 12.70929,-8.92676 7.11115,-3.17732 14.67621,-3.17732 11.65018,0 19.51784,5.29554 7.86765,5.14423 11.80148,14.3736 4.08513,9.07806 4.08513,20.87955 0,3.02602 -0.30261,5.90074 -0.3026,2.72342 -0.7565,4.38773 h -52.19887 q 0.90781,6.80855 4.08513,11.49888 3.17732,4.69033 8.17026,7.11115 4.99293,2.26951 11.34758,2.26951 5.14423,0 9.68327,-1.3617 4.53903,-1.51302 9.22936,-4.38774 l 7.56505,13.6171 q -6.20334,4.23643 -13.91969,6.80855 -7.71636,2.57212 -15.58401,2.57212 z m -21.03085,-53.10668 h 34.64794 q 0,-8.47286 -3.93383,-13.46579 -3.78252,-5.14424 -12.10408,-5.14424 -4.38773,0 -8.32156,2.11822 -3.93383,1.96691 -6.65725,6.20334 -2.72341,4.08513 -3.63122,10.28847 z m 78.04372,84.8799 q -3.78253,0 -6.50595,-0.4539 -2.72341,-0.45391 -5.14423,-1.21041 l 4.08513,-16.94572 q 1.21041,0.3026 2.72342,0.6052 1.66431,0.45391 3.17732,0.45391 6.50594,0 10.28847,-3.63123 3.78253,-3.63122 5.59814,-9.22936 l 1.51301,-5.14424 -32.98363,-83.06429 h 22.39256 l 13.46579,39.33828 q 1.96692,5.74944 3.63123,11.80148 1.66431,6.05205 3.47992,12.10409 h 0.75651 q 1.36171,-6.05204 2.87472,-11.95278 1.66431,-6.05205 3.17732,-11.95279 l 11.65018,-39.33828 h 21.33345 l -30.10891,87.30072 q -3.63123,9.98587 -8.32156,16.94572 -4.69033,7.11115 -11.19628,10.74237 -6.35464,3.63123 -15.88661,3.63123 z m 81.24859,-33.89144 V 744.67048 h 22.39256 v 48.71894 h 0.4539 l 37.06877,-48.71894 h 24.66207 l -34.19404,44.17991 40.24608,67.93418 h -24.51077 l -29.04981,-50.38325 -14.6762,18.91263 v 31.47062 z m 135.70795,2.11822 q -11.80148,0 -21.33345,-5.29554 -9.53197,-5.29554 -15.28141,-15.28141 -5.59814,-9.98587 -5.59814,-23.90557 0,-10.28847 3.17732,-18.45873 3.32863,-8.17025 8.92677,-13.9197 5.74944,-5.90074 12.70929,-8.92676 7.11115,-3.17732 14.6762,-3.17732 11.65018,0 19.51784,5.29554 7.86765,5.14423 11.80148,14.3736 4.08513,9.07806 4.08513,20.87955 0,3.02602 -0.3026,5.90074 -0.3026,2.72342 -0.75651,4.38773 h -52.19887 q 0.90781,6.80855 4.08513,11.49888 3.17733,4.69033 8.17026,7.11115 4.99294,2.26951 11.34758,2.26951 5.14424,0 9.68327,-1.3617 4.53903,-1.51302 9.22936,-4.38774 l 7.56506,13.6171 q -6.20335,4.23643 -13.9197,6.80855 -7.71635,2.57212 -15.58401,2.57212 z m -21.03085,-53.10668 h 34.64795 q 0,-8.47286 -3.93383,-13.46579 -3.78253,-5.14424 -12.10409,-5.14424 -4.38773,0 -8.32156,2.11822 -3.93382,1.96691 -6.65724,6.20334 -2.72342,4.08513 -3.63123,10.28847 z m 78.04374,84.8799 q -3.78253,0 -6.50595,-0.4539 -2.72342,-0.45391 -5.14423,-1.21041 l 4.08513,-16.94572 q 1.2104,0.3026 2.72342,0.6052 1.66431,0.45391 3.17732,0.45391 6.50594,0 10.28847,-3.63123 3.78253,-3.63122 5.59814,-9.22936 l 1.51301,-5.14424 -32.98363,-83.06429 h 22.39256 l 13.46579,39.33828 q 1.96691,5.74944 3.63123,11.80148 1.66431,6.05205 3.47992,12.10409 h 0.75651 q 1.36171,-6.05204 2.87472,-11.95278 1.66431,-6.05205 3.17732,-11.95279 l 11.65018,-39.33828 h 21.33345 l -30.10891,87.30072 q -3.63123,9.98587 -8.32156,16.94572 -4.69033,7.11115 -11.19628,10.74237 -6.35464,3.63123 -15.88661,3.63123 z"
     id="text34"
     aria-label="HoneyKey" />
</svg>
