<?xml version="1.0" encoding="UTF-8" standalone="no"?>
<svg
   width="1024"
   height="1024"
   viewBox="0 0 1024 1024"
   version="1.1"
   id="svg34"
   sodipodi:docname="HoneyKey Default Logo No Text.svg"
   inkscape:version="1.4.2 (f4327f4, 2025-05-13)"
   xmlns:inkscape="http://www.inkscape.org/namespaces/inkscape"
   xmlns:sodipodi="http://sodipodi.sourceforge.net/DTD/sodipodi-0.dtd"
   xmlns="http://www.w3.org/2000/svg"
   xmlns:svg="http://www.w3.org/2000/svg">
  <defs
     id="defs34">
    <rect
       x="240.0564"
       y="693.09518"
       width="535.46417"
       height="154.6228"
       id="rect34" />
  </defs>
  <sodipodi:namedview
     id="namedview34"
     pagecolor="#ffffff"
     bordercolor="#000000"
     borderopacity="0.25"
     inkscape:showpageshadow="2"
     inkscape:pageopacity="0.0"
     inkscape:pagecheckerboard="0"
     inkscape:deskcolor="#d1d1d1"
     showguides="true"
     inkscape:zoom="0.46887256"
     inkscape:cx="740.07316"
     inkscape:cy="525.72921"
     inkscape:window-width="1920"
     inkscape:window-height="1111"
     inkscape:window-x="-9"
     inkscape:window-y="-9"
     inkscape:window-maximized="1"
     inkscape:current-layer="svg34">
    <sodipodi:guide
       position="512.07521,519.21974"
       orientation="1,0"
       id="guide36"
       inkscape:locked="false" />
  </sodipodi:namedview>
  <g
     id="g36"
     style="display:none">
    <path
       fill="#295159"
       d="m 345.783,709.578 c 16.001,-2.865 31.283,7.82 34.086,23.831 2.803,16.012 -7.94,31.253 -23.962,33.994 -15.936,2.727 -31.076,-7.946 -33.864,-23.87 -2.788,-15.925 7.826,-31.106 23.74,-33.955 z"
       id="path13" />
    <path
       fill="#faf8ea"
       d="m 349.83,723.162 c 18.648,0.261 21.39,25.213 3.281,30.429 -21.436,0.231 -21.299,-27.813 -3.281,-30.429 z"
       id="path14" />
    <path
       fill="#295159"
       d="m 241.962,695.975 16.065,-0.054 0.038,28.066 33.855,-0.064 0.039,-27.938 16.063,-0.045 0.049,45.401 c 0.007,7.373 0.296,17.479 -0.136,24.711 l -15.959,0.047 -0.052,-29.045 -33.907,0.025 0.061,28.97 -16.089,0.037 z"
       id="path15" />
    <path
       fill="#295159"
       d="m 639.432,696.019 c 5.283,-0.205 11.728,-0.043 17.098,-0.041 -9.423,9.49 -18.256,19.433 -27.969,29.142 3.844,7.395 11.092,17.194 16.533,23.658 4.401,5.58 8.617,11.303 12.641,17.16 -5.931,0.128 -11.864,0.153 -17.796,0.076 -7.713,-8.705 -14.753,-19.917 -23.102,-29.043 -2.334,3.343 -6.797,7.692 -9.737,10.742 0.05,6.059 0,12.119 -0.15,18.177 -4.728,0.312 -11.139,0.143 -15.992,0.159 -0.161,-6.806 -1.06,-13.995 -0.923,-20.932 0.131,-6.617 0.685,-13.541 0.708,-20.113 0.018,-5.496 -1.699,-24.722 -0.204,-28.832 3.552,-0.271 12.236,-0.645 15.358,0.186 3.479,3.5 -1.707,28.968 2.869,30.63 2.063,-0.986 16.342,-16.413 18.624,-19.099 3.75,-4.415 7.635,-7.933 12.042,-11.87 z"
       id="path16" />
    <path
       fill="#295159"
       d="m 485.617,710.171 c 13.34,-1.813 26.254,6.593 30.152,19.41 1.487,4.89 1.408,8.346 1.134,13.34 -9.184,0.497 -19.707,-0.15 -28.997,0.133 -3.573,0.109 -8.269,-0.38 -11.658,0.19 -2.283,3.492 3.66,8.79 6.189,9.854 6.647,2.796 15.478,0.071 21.764,-2.614 1.297,-0.554 2.203,0.494 3.171,1.211 1.726,1.639 3.98,4.424 5.591,6.295 -4.623,4.358 -10.398,7.3 -16.641,8.478 -8.792,1.619 -17.866,-0.347 -25.198,-5.462 -5.763,-4.045 -10.134,-11.533 -11.096,-18.476 -2.411,-17.395 8.962,-30.003 25.589,-32.359 z"
       id="path24" />
    <path
       fill="#faf8ea"
       d="m 485.158,722.578 c 8.982,-0.573 14.816,1.312 16.671,11.047 l -9.079,0.006 -17.938,0.011 c 0.325,-0.9 0.677,-1.79 1.054,-2.668 2.222,-5.104 4.345,-6.523 9.292,-8.396 z"
       id="path25" />
    <path
       fill="#295159"
       d="m 685.399,710.141 c 14.865,-1.764 28.378,7.406 31.272,22.453 0.642,3.339 0.429,7.04 0.388,10.448 -7.888,-0.026 -15.777,-0.009 -23.665,0.05 -3.886,-0.004 -14.719,-1.21 -17.173,1.447 -1.285,9.849 17.755,11.159 23.9,8.309 1.555,-0.721 3.01,-2.933 4.816,-3.586 l 1.883,1.805 c 2.03,2.206 4.275,4.337 6.419,6.442 -21.107,20.787 -59.546,4.68 -52.426,-26.282 2.858,-12.427 12.775,-18.669 24.586,-21.086 z"
       id="path26" />
    <path
       fill="#faf8ea"
       d="m 686.333,722.544 c 9.548,-0.667 13.438,2.14 16.054,11.086 l -10.137,-0.034 -16.499,10e-4 c 2.123,-6.564 3.794,-8.966 10.582,-11.053 z"
       id="path27" />
    <path
       fill="#295159"
       d="m 519.602,711.045 15.912,-0.107 c 3.301,9.523 11.323,29.464 15.798,38.123 5.303,-10.135 10.368,-26.678 15.354,-38.062 l 14.954,-0.026 c -5.683,15.452 -12.629,30.599 -18.606,45.936 -4.645,10.709 -8.31,25.042 -20.839,28.889 -8.73,2.681 -14.777,0.118 -22.356,-3.808 2.291,-3.138 4.189,-9.144 6.553,-10.5 5.466,5.999 19.652,1.36 16.342,-6.069 -7.955,-17.853 -15.059,-36.635 -23.112,-54.376 z"
       id="path28" />
    <path
       fill="#295159"
       d="m 719.996,710.975 15.439,-0.038 c 4.855,8.121 10.879,30.594 16.016,37.104 3.046,-4.5 12.538,-30.433 14.95,-37.058 l 15.015,0.013 c -6.45,15.138 -12.697,31.079 -19.065,46.382 -4.379,11.342 -8.898,26.402 -22.391,29.169 -7.393,1.516 -13.771,-1.047 -19.833,-4.935 2.664,-4.048 3.83,-6.695 5.884,-11.068 l 3.719,3.405 8.365,0.048 c 5.338,-4.199 6.215,-4.984 3.704,-11.666 -3.201,-8.012 -6.712,-15.966 -10.34,-23.798 -4.17,-8.999 -7.47,-18.542 -11.463,-27.558 z"
       id="path29" />
    <path
       fill="#295159"
       d="m 424.294,710.152 c 5.664,-0.944 12.728,1.117 16.88,5.079 2.901,2.772 4.995,6.281 6.058,10.15 2.101,7.836 0.833,31.635 0.851,40.665 l -15.104,0.035 c -0.145,-11.073 1.72,-30.869 -3.042,-39.626 l -3.536,-2.379 c -4.119,-0.113 -9.266,-0.654 -12.907,1.16 -5.823,6.333 -5.583,10.484 -5.554,18.682 0.026,7.355 0.082,14.758 0.13,22.118 l -15.037,0.067 c -0.082,-4.633 -0.991,-9.64 -0.919,-14.244 0.214,-13.66 -0.097,-27.244 0.821,-40.864 l 13.92,-0.112 c 0.152,1.93 0.063,2.728 1.018,4.431 3.2,1.328 6.732,-2.764 10.336,-3.85 2.382,-0.717 3.655,-0.922 6.085,-1.312 z"
       id="path30" />
  </g>
  <ellipse
     style="fill:#fbead2;fill-opacity:1;stroke:#000000;stroke-width:1.08111;stroke-miterlimit:2;stroke-dasharray:none;stroke-opacity:0"
     id="path41"
     ry="511.4346"
     rx="511.44235"
     cy="511.98434"
     cx="512.01031" />
  <g
     id="g35"
     transform="matrix(1.3093347,0,0,1.3093347,-155.09652,-35.110099)">
    <path
       id="path1"
       style="fill:#e09b3d;fill-opacity:1;stroke-width:1.57605"
       inkscape:label="path1"
       d="m 548.05018,443.0443 c -22.55647,0.041 -49.19627,-0.6146 -71.52263,0.19391 -5.83612,0.0315 -13.17585,-0.12036 -18.84491,0.41865 -16.09307,3.97008 -17.99726,14.74257 -18.17693,29.41247 0.0268,14.65099 -0.23179,28.88493 -0.0616,43.57847 0.15603,13.48471 -1.23195,31.98333 8.64675,42.66424 2.01892,2.18283 8.8015,3.26282 11.78654,3.39836 13.53829,0.61151 27.24907,0.34341 40.81731,0.33553 23.16009,0.0977 46.32016,0.0169 69.47868,-0.24626 4.74234,-3.18993 10.70162,-7.45395 12.53453,-13.16557 3.04651,-9.49257 3.55251,-87.118 -0.59409,-94.82175 -3.19623,-5.93857 -8.43026,-9.72084 -14.84322,-11.56797 z m -39.30282,25.38614 c 14.98354,-0.7045 21.46304,6.54194 24.7428,20.23627 -2.04098,9.5556 -4.03762,11.65727 -10.84459,18.22311 3.08433,10.75498 4.92913,22.49481 8.24042,33.95902 l -13.6304,-0.003 -23.58847,0.0677 c 2.68717,-11.07335 5.05155,-22.80627 7.47395,-33.98364 -14.58637,-14.2286 -12.80359,-32.02812 7.60629,-38.49939 z" />
    <path
       fill="#295159"
       d="m 457.68264,443.65651 c 0.47754,-2.93618 0.30103,-11.56192 0.25374,-14.84641 -0.47123,-19.11122 2.19545,-33.22477 16.04895,-47.27528 21.39649,-21.6991 55.83482,-21.47372 77.14936,0.54374 17.25778,17.8283 16.32318,37.93086 16.13563,61.1666 l -19.21997,-0.20015 c 0.26951,-17.8031 3.01814,-35.57467 -10.27586,-49.04834 -6.96143,-7.07806 -16.56431,-10.92205 -26.48557,-10.60053 -9.96065,0.28369 -19.36969,4.63517 -26.03639,12.04104 -11.3397,12.8401 -8.84953,31.26101 -8.72345,47.80168 -5.83612,0.0315 -13.17738,-0.12136 -18.84644,0.41765 z"
       id="path3"
       style="stroke-width:1.57605" />
    <path
       fill="#e09b3d"
       d="m 347.40938,232.14078 c 16.26486,-1.12373 45.78433,-0.14342 63.23754,-0.14658 l 129.04878,-0.0173 h 90.15652 c 67.42039,0.005 56.63073,-6.18916 93.53243,50.1894 -10.82906,3.05281 -53.77492,6.2128 -67.31794,7.34913 -6.9173,1.07802 -15.02136,1.04808 -22.04741,1.67377 -21.91343,1.95273 -43.63302,2.46967 -65.61738,2.3956 -7.02762,-0.0236 -13.93703,2.28528 -21.09862,0.88574 -10.41298,-2.03311 -17.28772,-11.10644 -27.85042,-12.87635 -20.19712,-3.57606 -26.54704,3.19151 -42.48093,13.30346 -5.04967,0.2632 -9.89131,-0.27738 -14.93152,-0.58471 -45.10821,-2.75022 -90.00523,-2.8369 -134.93061,-8.75498 -8.13874,-1.07329 -18.90948,-0.7959 -26.4572,-3.52405 4.49491,-6.46497 9.29714,-13.12379 13.1695,-19.95283 8.44922,-14.90315 15.62972,-26.06318 33.58726,-29.94027 z"
       id="path5"
       style="stroke-width:1.57605" />
    <path
       fill="#295159"
       d="m 353.39996,159.54779 c 14.73924,-0.73444 33.40601,-0.16864 48.53297,-0.16707 l 90.99025,-0.002 112.34262,-0.0268 c 18.91421,0.002 37.94662,-0.0567 56.8561,0.093 4.2585,0.32782 11.05444,0.34201 14.81174,2.19544 13.90079,6.85583 23.56199,23.36026 15.14587,38.10266 -5.13793,9.00241 -12.06311,12.63679 -21.56513,15.37439 -8.13558,1.68638 -28.64633,1.10954 -37.73701,1.10954 l -66.68752,-0.0299 -133.29781,0.0158 c -22.50131,0.003 -45.18543,0.11347 -67.68201,-0.11348 -6.23644,-0.48542 -12.06468,-0.56423 -17.87717,-3.08276 -17.35864,-7.52407 -23.93236,-27.60771 -11.69746,-42.78037 4.83375,-5.99531 10.54064,-8.53275 17.86456,-10.68879 z"
       id="path6"
       style="stroke-width:1.57605" />
    <path
       fill="#e09b3d"
       d="m 540.4853,648.07213 c 40.46673,0.13554 80.91928,-1.43893 121.25362,-4.72027 9.51621,-0.74233 28.10733,-1.50041 36.30595,-3.73998 -3.46416,8.10407 -9.26088,16.39726 -14.1167,23.87878 -6.5816,9.39642 -20.11832,29.57148 -30.76928,31.7748 -19.54148,4.04415 -48.32178,2.45549 -68.39281,2.45706 l -101.97061,0.008 -67.44088,-0.0236 c -43.58889,-0.0315 -54.17839,2.92989 -78.20216,-38.75198 -4.55795,-7.90863 -6.80855,-9.20888 -10.02212,-19.16638 5.37749,1.40742 10.23804,1.73523 15.71797,2.19071 33.52422,2.79277 67.0248,4.26638 100.59788,6.08514 14.72506,0.79749 35.76694,-3.36487 48.6291,4.83849 10.11353,6.45078 17.52886,6.92044 29.44225,5.5808 4.38773,-0.58787 14.71875,-7.70217 18.96779,-10.41141 z"
       id="path7"
       style="stroke-width:1.57605" />
    <path
       fill="#e09b3d"
       d="m 753.64171,525.34333 c 2.91254,-0.24587 7.06702,-0.15445 10.08674,-0.18598 -4.85897,26.3721 -10.49967,28.7677 -21.14275,49.89941 -23.28303,46.22563 -19.13959,47.56212 -71.56698,51.96246 -29.24366,2.31837 -58.53145,4.07725 -87.84288,5.27347 l -13.7747,0.17495 c 9.72267,-10.45396 19.32083,-10.58162 29.68653,-17.23099 26.39416,-16.92838 55.56059,-27.77635 80.66238,-46.8135 8.7865,-6.66512 8.22069,-23.37601 8.99611,-33.64557 9.15214,-1.37905 18.08678,-1.32388 26.44617,-2.60994 12.53119,-1.92752 25.95286,-4.47914 38.44938,-6.82431 z"
       id="path8"
       style="stroke-width:1.57605" />
    <path
       fill="#295159"
       d="m 745.43993,229.70262 c 31.48323,-7.27191 100.23065,-13.41536 113.56721,26.6479 3.59813,10.81015 -4.29159,27.24838 -10.23016,36.27443 -40.29336,57.60473 -125.95183,102.45762 -186.39818,134.82344 -3.66905,18.22232 -7.45631,24.61794 -26.26019,29.38708 -18.0663,-3.98584 -21.12226,-8.714 -26.58329,-25.68966 4.69034,-16.75187 9.02291,-21.56356 25.93868,-26.3847 6.76127,2.01104 9.82196,2.81325 15.85194,6.78018 46.13579,-20.14353 165.80705,-91.72155 184.04987,-138.61384 2.54217,-6.53432 4.08985,-14.00639 1.19464,-20.68885 -3.27031,-7.55244 -10.98666,-11.72583 -18.3752,-14.39409 -17.9276,-6.47758 -36.52502,-5.55558 -55.19336,-6.52486 -2.71239,0.49331 -30.41309,2.0142 -32.79766,1.8629 l 0.0961,-0.51064 c 5.28293,-1.06069 9.75261,-2.39245 15.13956,-2.96929 z"
       id="path9"
       style="stroke-width:1.57605" />
    <path
       fill="#163740"
       d="m 763.00189,231.31965 c -2.71239,0.49331 -30.41309,2.0142 -32.79766,1.8629 l 0.0961,-0.51064 c 5.28293,-1.06069 9.75261,-2.39245 15.13956,-2.96929 4.23643,2.56109 11.86925,0.84792 17.56196,1.61703 z"
       id="path10"
       style="stroke-width:1.57605" />
    <path
       fill="#e09b3d"
       d="m 294.38466,297.34996 c 4.29474,-0.44602 37.42495,4.65093 45.08614,5.29396 15.91183,2.25691 33.00412,1.09221 48.82139,2.88733 21.03085,2.38457 39.49588,3.66905 60.76314,3.71476 -16.93784,11.16948 -36.95371,21.29247 -54.84664,30.84965 -13.6565,8.29477 -37.82684,25.56988 -51.68665,22.12148 -9.50675,-2.36566 -74.24942,-6.59421 -78.65606,-10.55955 -3.23879,-9.72425 9.06703,-34.53605 14.9063,-43.06092 4.44447,-6.49176 8.57688,-8.81801 15.61238,-11.24671 z"
       id="path11"
       style="stroke-width:1.57605" />
    <path
       fill="#e09b3d"
       d="m 720.66596,298.45477 c 21.10492,-2.49804 28.49976,12.52805 35.79373,28.96785 -15.1963,9.39958 -33.00885,24.84332 -50.23195,30.67156 -4.67773,1.58236 -31.32878,5.58238 -34.71414,4.21595 -10.04576,-4.05361 -28.60221,-14.24594 -38.39422,-19.5273 -10.93781,-6.56899 -22.05213,-12.83852 -33.33194,-18.80073 -11.11748,-5.90232 -16.14509,-6.23171 -26.00645,-14.84011 9.16632,0.0426 18.72824,0.17494 27.87092,-0.15919 9.10958,-0.33412 18.96464,-1.93854 28.04113,-2.34831 30.73933,-1.39008 60.46684,-4.51224 90.97292,-8.17972 z"
       id="path12"
       style="stroke-width:1.57605" />
    <path
       fill="#295159"
       d="m 205.64186,471.51009 0.1844,1.39166 c -2.95195,2.69663 -5.81406,5.49097 -8.58004,8.37987 -13.50046,14.16399 -34.33115,39.49116 -37.80635,58.72846 -0.59417,3.29395 -0.36722,10.49178 -0.27896,14.0773 0.39086,0.70449 0.77384,1.41529 1.2041,2.09457 22.84331,36.079 142.0717,2.2711 175.99624,-8.41769 12.66516,-3.99057 25.35554,-8.44292 37.85364,-12.95201 6.4035,-2.30891 12.97249,-5.49727 19.59821,-6.97088 1.81089,-0.40347 3.59498,-0.27896 5.37277,0.23011 1.95588,0.55949 3.72894,1.79512 4.59104,3.69584 1.0134,2.23799 0.78487,5.02761 -0.0867,7.26087 -2.34674,6.01107 -6.8117,7.5887 -12.28848,10.05365 -13.05602,3.92121 -26.99148,9.57767 -40.13891,13.81252 -49.4723,15.93547 -101.51829,32.86701 -154.13796,30.08843 -15.14744,-0.777 -35.76694,-4.72501 -46.14683,-16.58638 -22.98042,-26.26177 8.28374,-61.17922 26.49976,-80.47956 7.91808,-8.39091 18.97409,-16.54068 28.16406,-24.40676 z"
       id="path17"
       style="stroke-width:1.57605" />
    <path
       fill="#295159"
       d="m 256.6051,365.90983 c 1.95588,-0.0189 24.0285,3.39324 27.57462,3.91964 17.39332,2.57843 36.89855,3.96062 53.94829,7.14898 0.30575,1.79355 -2.52326,10.40983 -2.53272,15.21679 -0.0362,16.05052 -0.0205,32.13099 0.0221,48.17678 l -6.8243,-0.66194 c -24.03323,-3.41216 -49.11454,-5.07174 -72.50474,-11.04498 -15.0907,-4.73604 -12.53592,-17.64864 -12.10093,-30.28228 0.52167,-15.14587 -5.0087,-26.3453 12.41772,-32.47299 z"
       id="path18"
       style="stroke-width:1.57605" />
    <path
       fill="#e09b3d"
       d="m 270.94088,389.10933 c 6.09459,-1.69899 12.40668,1.89756 14.05208,8.0095 1.64383,6.11035 -2.01104,12.38935 -8.13716,13.97801 -6.04731,1.5666 -12.22859,-2.02996 -13.85035,-8.06309 -1.62333,-6.03313 1.91806,-12.24593 7.93543,-13.92442 z"
       id="path19"
       style="stroke-width:1.57605" />
    <path
       fill="#295159"
       d="m 254.21738,444.76133 c 8.0489,-0.53586 34.4336,4.63517 43.43444,6.15448 12.58636,2.04257 25.23103,3.70688 37.91825,4.98663 l 0.0615,63.15559 c -2.78016,-0.15603 -5.56032,-0.34358 -8.33574,-0.56423 -22.58799,-2.89205 -45.86629,-5.52091 -68.21314,-9.75576 -16.75502,-3.17417 -15.37282,-18.72036 -15.00718,-31.78426 0.27423,-9.80305 -1.16785,-16.24438 2.20017,-25.97965 3.24825,-3.2577 4.00475,-3.81563 7.94173,-6.2128 z"
       id="path20"
       style="stroke-width:1.57605" />
    <path
       fill="#e09b3d"
       d="m 271.34435,467.8568 c 6.13557,-1.39638 12.25853,2.38457 13.75736,8.4965 1.49883,6.11194 -2.17968,12.29637 -8.2664,13.89606 -4.02839,1.05911 -8.31367,-0.13554 -11.21204,-3.12689 -2.89836,-2.99135 -3.95746,-7.31288 -2.77227,-11.30502 1.18519,-3.99215 4.43186,-7.0355 8.49335,-7.96065 z"
       id="path21"
       style="stroke-width:1.57605" />
    <path
       fill="#295159"
       d="m 764.71348,445.00404 c 6.94251,-1.02916 11.97485,5.98112 15.1963,11.11117 0.59102,12.65255 0.17337,28.484 0.19228,41.37927 -2.63201,3.19938 -6.20177,7.3381 -10.14348,8.6541 -19.86457,6.6273 -44.35485,8.74237 -65.02951,11.52095 -2.56581,-0.31521 -12.56429,1.171 -16.37676,1.43263 l 0.0284,-62.89081 c 25.40125,-3.57606 50.77885,-7.31288 76.13281,-11.20731 z"
       id="path22"
       style="stroke-width:1.57605" />
    <path
       fill="#e09b3d"
       d="m 747.02544,467.98289 c 6.1072,-1.52089 12.29794,2.16549 13.87084,8.25851 1.5729,6.0946 -2.06148,12.31686 -8.14189,13.94019 -6.15291,1.64225 -12.465,-2.04414 -14.05681,-8.20966 -1.59182,-6.16709 2.14816,-12.44766 8.32786,-13.98904 z"
       id="path23"
       style="stroke-width:1.57605" />
    <path
       fill="#e09b3d"
       d="m 360.86887,580.398 c 16.08362,8.5958 31.58567,17.74005 48.25874,25.2988 4.56582,2.35305 8.77231,6.93148 13.32079,9.08279 11.94964,5.65173 22.58326,9.84245 33.40917,17.53674 -15.22467,0.15919 -49.4786,-0.98661 -64.34551,-2.86368 -15.99378,-0.56581 -31.7417,-2.02366 -47.57157,-3.47205 -27.23577,-2.49174 -36.4935,-0.29472 -49.7355,-26.99778 24.83386,-5.49255 42.61174,-12.06469 66.66388,-18.58482 z"
       id="path31"
       style="stroke-width:1.57605" />
    <path
       fill="#295159"
       d="m 509.34407,98.26455 c 7.90548,-1.539804 21.14748,2.65407 28.20189,6.60366 16.62578,9.30817 23.58563,19.62028 28.86383,37.2705 l -50.6102,0.041 -58.23988,-0.009 c 8.07727,-27.9182 23.50525,-39.73229 51.78436,-43.90568 z"
       id="path32"
       style="stroke-width:1.57605" />
    <path
       fill="#295159"
       d="m 779.18007,381.67193 0.62727,0.68874 c 1.2041,8.22857 -0.33413,16.89529 0.24744,25.06081 0.64933,9.10801 -0.60363,18.1388 -10.88422,21.179 -18.76134,5.55086 -39.63773,6.62258 -59.05785,9.27192 -6.7723,0.92514 -13.15374,0.34043 -19.81414,2.5075 -2.27109,-1.77779 -1.41687,-0.62569 -2.12452,-3.91649 1.37117,-3.73367 13.65492,-9.11116 17.77945,-10.96775 25.60929,-11.52725 49.29736,-30.81183 73.22657,-43.82373 z"
       id="path33"
       style="stroke-width:1.57605" />
    <path
       fill="#e09b3d"
       d="m 260.81001,524.6341 c 5.88498,1.56345 16.8874,2.69821 23.21526,3.60129 10.66672,1.53192 21.30035,3.29079 31.89142,5.27504 l -8.37829,3.64069 c -13.5052,4.38142 -26.43986,6.67143 -39.89463,10.76444 -1.81718,-7.65489 -4.84951,-15.17739 -6.83376,-23.28146 z"
       id="path34"
       style="stroke-width:1.57605" />
  </g>
  <path
     style="font-weight:bold;font-size:96px;font-family:'Noto Sans SC';-inkscape-font-specification:'Noto Sans SC Bold';text-align:center;text-anchor:middle;white-space:pre;display:none;fill:#023d50;stroke:#000000;stroke-width:1.6911;stroke-miterlimit:2;stroke-opacity:0"
     d="M 142.8163,856.78457 V 744.67048 h 22.39255 v 44.33121 h 42.3643 v -44.33121 h 22.24126 v 112.11409 h -22.24126 v -48.41634 h -42.3643 v 48.41634 z m 148.12372,2.11822 q -10.59107,0 -19.97174,-5.29554 -9.22936,-5.29554 -14.9788,-15.13011 -5.74944,-9.98587 -5.74944,-24.05687 0,-14.071 5.74944,-23.90557 5.74944,-9.98587 14.9788,-15.2814 9.38067,-5.29554 19.97174,-5.29554 8.01896,0 15.28141,3.02602 7.26245,3.02602 13.01189,8.77546 5.74944,5.59814 9.07807,13.9197 3.32862,8.17026 3.32862,18.76133 0,14.071 -5.74944,24.05687 -5.74944,9.83457 -15.13011,15.13011 -9.22936,5.29554 -19.82044,5.29554 z m 0,-18.15613 q 5.74944,0 9.68327,-3.17732 4.08513,-3.32863 6.05205,-9.22937 2.11821,-5.90074 2.11821,-13.9197 0,-8.01895 -2.11821,-13.9197 -1.96692,-5.90074 -6.05205,-9.07806 -3.93383,-3.32862 -9.68327,-3.32862 -5.74944,0 -9.83456,3.32862 -3.93383,3.17732 -6.05205,9.07806 -1.96691,5.90075 -1.96691,13.9197 0,8.01896 1.96691,13.9197 2.11822,5.90074 6.05205,9.22937 4.08512,3.17732 9.83456,3.17732 z m 59.30994,16.03791 v -84.7286 h 18.15613 l 1.66431,11.19628 h 0.45391 q 5.59814,-5.44683 12.25538,-9.38066 6.65725,-3.93383 15.28141,-3.93383 13.7684,0 19.97174,9.07806 6.20334,8.92677 6.20334,24.96468 v 52.80407 h -22.24125 v -50.08065 q 0,-9.83457 -2.87472,-13.7684 -2.72342,-3.93383 -9.07807,-3.93383 -5.14423,0 -9.07806,2.42082 -3.78253,2.42082 -8.47286,7.11115 v 58.25091 z m 133.90156,2.11822 q -11.80149,0 -21.33345,-5.29554 -9.53197,-5.29554 -15.28141,-15.28141 -5.59814,-9.98587 -5.59814,-23.90557 0,-10.28847 3.17732,-18.45873 3.32863,-8.17025 8.92676,-13.9197 5.74945,-5.90074 12.70929,-8.92676 7.11115,-3.17732 14.67621,-3.17732 11.65018,0 19.51784,5.29554 7.86765,5.14423 11.80148,14.3736 4.08513,9.07806 4.08513,20.87955 0,3.02602 -0.30261,5.90074 -0.3026,2.72342 -0.7565,4.38773 h -52.19887 q 0.90781,6.80855 4.08513,11.49888 3.17732,4.69033 8.17026,7.11115 4.99293,2.26951 11.34758,2.26951 5.14423,0 9.68327,-1.3617 4.53903,-1.51302 9.22936,-4.38774 l 7.56505,13.6171 q -6.20334,4.23643 -13.91969,6.80855 -7.71636,2.57212 -15.58401,2.57212 z m -21.03085,-53.10668 h 34.64794 q 0,-8.47286 -3.93383,-13.46579 -3.78252,-5.14424 -12.10408,-5.14424 -4.38773,0 -8.32156,2.11822 -3.93383,1.96691 -6.65725,6.20334 -2.72341,4.08513 -3.63122,10.28847 z m 78.04372,84.8799 q -3.78253,0 -6.50595,-0.4539 -2.72341,-0.45391 -5.14423,-1.21041 l 4.08513,-16.94572 q 1.21041,0.3026 2.72342,0.6052 1.66431,0.45391 3.17732,0.45391 6.50594,0 10.28847,-3.63123 3.78253,-3.63122 5.59814,-9.22936 l 1.51301,-5.14424 -32.98363,-83.06429 h 22.39256 l 13.46579,39.33828 q 1.96692,5.74944 3.63123,11.80148 1.66431,6.05205 3.47992,12.10409 h 0.75651 q 1.36171,-6.05204 2.87472,-11.95278 1.66431,-6.05205 3.17732,-11.95279 l 11.65018,-39.33828 h 21.33345 l -30.10891,87.30072 q -3.63123,9.98587 -8.32156,16.94572 -4.69033,7.11115 -11.19628,10.74237 -6.35464,3.63123 -15.88661,3.63123 z m 81.24859,-33.89144 V 744.67048 h 22.39256 v 48.71894 h 0.4539 l 37.06877,-48.71894 h 24.66207 l -34.19404,44.17991 40.24608,67.93418 h -24.51077 l -29.04981,-50.38325 -14.6762,18.91263 v 31.47062 z m 135.70795,2.11822 q -11.80148,0 -21.33345,-5.29554 -9.53197,-5.29554 -15.28141,-15.28141 -5.59814,-9.98587 -5.59814,-23.90557 0,-10.28847 3.17732,-18.45873 3.32863,-8.17025 8.92677,-13.9197 5.74944,-5.90074 12.70929,-8.92676 7.11115,-3.17732 14.6762,-3.17732 11.65018,0 19.51784,5.29554 7.86765,5.14423 11.80148,14.3736 4.08513,9.07806 4.08513,20.87955 0,3.02602 -0.3026,5.90074 -0.3026,2.72342 -0.75651,4.38773 h -52.19887 q 0.90781,6.80855 4.08513,11.49888 3.17733,4.69033 8.17026,7.11115 4.99294,2.26951 11.34758,2.26951 5.14424,0 9.68327,-1.3617 4.53903,-1.51302 9.22936,-4.38774 l 7.56506,13.6171 q -6.20335,4.23643 -13.9197,6.80855 -7.71635,2.57212 -15.58401,2.57212 z m -21.03085,-53.10668 h 34.64795 q 0,-8.47286 -3.93383,-13.46579 -3.78253,-5.14424 -12.10409,-5.14424 -4.38773,0 -8.32156,2.11822 -3.93382,1.96691 -6.65724,6.20334 -2.72342,4.08513 -3.63123,10.28847 z m 78.04374,84.8799 q -3.78253,0 -6.50595,-0.4539 -2.72342,-0.45391 -5.14423,-1.21041 l 4.08513,-16.94572 q 1.2104,0.3026 2.72342,0.6052 1.66431,0.45391 3.17732,0.45391 6.50594,0 10.28847,-3.63123 3.78253,-3.63122 5.59814,-9.22936 l 1.51301,-5.14424 -32.98363,-83.06429 h 22.39256 l 13.46579,39.33828 q 1.96691,5.74944 3.63123,11.80148 1.66431,6.05205 3.47992,12.10409 h 0.75651 q 1.36171,-6.05204 2.87472,-11.95278 1.66431,-6.05205 3.17732,-11.95279 l 11.65018,-39.33828 h 21.33345 l -30.10891,87.30072 q -3.63123,9.98587 -8.32156,16.94572 -4.69033,7.11115 -11.19628,10.74237 -6.35464,3.63123 -15.88661,3.63123 z"
     id="text34"
     aria-label="HoneyKey" />
</svg>
